
        <svg xmlns="http://www.w3.org/2000/svg" xmlns:xlink="http://www.w3.org/1999/xlink" version="1.1" width="3160.377780517174" 
        height="1331.1355782925423" viewBox="-32.07555610343476 0 3160.377780517174 1331.1355782925423">
			<rect fill="#fcfcfc" width="3160.377780517174" height="1331.1355782925423"/>
			<g transform="scale(8.01888902585869) translate(10, 10)">
				<defs id="SvgjsDefs2907"></defs><g id="SvgjsG2908" featureKey="rootContainer" transform="matrix(1,0,0,1,0,0)" fill="#111111"><rect y="0" height="1" width="1" opacity="0"></rect><rect y="141" width="370" height="5"></rect></g><g id="SvgjsG2909" featureKey="HKaMnE-0" transform="matrix(0.9356042146682739,0,0,0.9356042146682739,-6.588816880738739,23.909347312786828)" fill="#111111"><circle xmlns="http://www.w3.org/2000/svg" fill="none" cx="50.266" cy="72.504" r="1.846"></circle><path xmlns="http://www.w3.org/2000/svg" d="M6.773,15.67v49.025H61.83V15.67H6.773z M42.061,40.271v1.462h-23.71v-1.462H42.061z M33.487,39.324H18.351v-1.462h15.136  V39.324z M13.155,20.572h4.169v1.462h-4.169V20.572z M13.155,23.035h10.391v1.462H13.155V23.035z M13.155,25.497H27.01v1.462H13.155  V25.497z M13.155,27.959h10.391v1.462H13.155V27.959z M13.155,30.422h10.391v1.462H13.155V30.422z M13.155,32.884h4.169v1.462  h-4.169V32.884z M13.155,35.347h6.97v1.462h-6.97V35.347z M13.155,37.862h4.169v1.462h-4.169V37.862z M13.155,40.271h4.169v1.462  h-4.169V40.271z M13.155,42.734h4.169v1.462h-4.169V42.734z M13.155,45.196h33.214v1.462H13.155V45.196z M13.155,47.659h4.169v1.462  h-4.169V47.659z M12.156,58.971h-1.264v-1.463h1.264V58.971z M12.156,56.508h-1.264v-1.462h1.264V56.508z M12.156,54.046h-1.264  v-1.462h1.264V54.046z M12.156,51.584h-1.264v-1.463h1.264V51.584z M12.156,49.121h-1.264v-1.462h1.264V49.121z M12.156,46.658  h-1.264v-1.462h1.264V46.658z M12.156,44.196h-1.264v-1.462h1.264V44.196z M12.156,41.733h-1.264v-1.462h1.264V41.733z   M12.156,39.271h-1.264v-1.462h1.264V39.271z M12.156,36.809h-1.264v-1.462h1.264V36.809z M12.156,34.346h-1.264v-1.462h1.264  V34.346z M12.156,31.884h-1.264v-1.462h1.264V31.884z M12.156,29.421h-1.264v-1.462h1.264V29.421z M12.156,26.959h-1.264v-1.462  h1.264V26.959z M12.156,24.497h-1.264v-1.462h1.264V24.497z M12.156,22.034h-1.264v-1.462h1.264V22.034z M20.125,58.971h-6.97  v-1.463h6.97V58.971z M21.68,56.508h-8.525v-1.462h8.525V56.508z M30.206,54.046H13.155v-1.462h17.051V54.046z M33.486,51.584  H13.155v-1.463h20.331V51.584z M46.37,49.121H18.351v-1.462H46.37V49.121z M51.529,44.196H18.351v-1.462h33.178V44.196z   M56.697,44.196h-4.17v-1.462h4.17V44.196z"></path><polygon xmlns="http://www.w3.org/2000/svg" points="76.779,59.389 76.779,44.737 65.256,44.737 65.256,59.389 65.256,59.391 76.779,59.391 "></polygon><path xmlns="http://www.w3.org/2000/svg" d="M94.934,11.854H51.053h-1.495H5.677c-1.563,0-2.91,1.189-2.91,2.752V68.7v0.188V73.9v0.313c0,1.563,1.347,2.877,2.91,2.877  h35.146c-0.041,0.896-0.321,4.756-2.155,6.623c-1.445,1.475-3.453,2.854-2.669,3.563c0.19,0.437,1.091,0.688,3.14,0.688  c4.521,0,9.416,0,11.208,0c0.453,0,0.708,0,0.708,0c1.791,0,6.688,0,11.207,0c2.334,0,3.149-0.383,3.157-0.952h-0.08v-0.189h-0.082  c-0.104-0.77-1.661-1.906-2.84-3.105c-1.834-1.867-2.112-5.725-2.153-6.621h34.674c1.563,0,2.83-1.314,2.83-2.879v-0.313v-5.012  v-0.188V14.607C97.766,13.042,96.497,11.854,94.934,11.854z M50.266,74.35c-1.021,0-1.847-0.824-1.847-1.846  c0-1.02,0.826-1.846,1.847-1.846c1.02,0,1.847,0.826,1.847,1.846C52.113,73.525,51.285,74.35,50.266,74.35z M93.76,64.695H61.83  H6.773V15.67H61.83h31.93V64.695z"></path><rect xmlns="http://www.w3.org/2000/svg" x="65.256" y="21.154" width="25.047" height="4.925"></rect><rect xmlns="http://www.w3.org/2000/svg" x="65.256" y="28.085" width="11.523" height="14.652"></rect><rect xmlns="http://www.w3.org/2000/svg" x="78.779" y="28.085" width="11.523" height="14.652"></rect><polygon xmlns="http://www.w3.org/2000/svg" points="78.779,59.389 78.779,59.391 90.303,59.391 90.303,59.389 90.303,44.737 78.779,44.737 "></polygon></g><g id="SvgjsG2910" featureKey="J3GnXt-0" transform="matrix(3.5020740032196045,0,0,3.5020740032196045,105.99031995494595,28.061602587232805)" fill="#111111"><path d="M8.0762 20.19531 c-4.1504 0 -7.2168 -2.8223 -7.2168 -7.2559 s3.0664 -7.2461 7.2168 -7.2461 c3.1445 0 5.6641 1.6113 6.6699 4.2871 l-2.7344 0.99609 c-0.625 -1.6406 -2.1191 -2.5879 -3.9355 -2.5879 c-2.4316 0 -4.2969 1.6992 -4.2969 4.5508 s1.8652 4.5605 4.2969 4.5605 c1.8164 0 3.3105 -0.95703 3.9355 -2.5977 l2.7344 0.99609 c-1.0059 2.6758 -3.5254 4.2969 -6.6699 4.2969 z M25.332265624999998 5.888999999999999 l0 2.5781 l-3.3496 0 l0 11.533 l-2.9004 0 l0 -11.533 l-3.3691 0 l0 -2.5781 l9.6191 0 z M35.03906875 20 l-3.6914 -14.111 l3.0469 0 l2.7539 10.684 l3.1543 -10.684 l2.4707 0 l3.1348 10.684 l2.7832 -10.684 l3.0371 0 l-3.6914 14.111 l-3.7695 0 l-2.7344 -8.7207 l-2.7246 8.7207 l-3.7695 0 z M62.168203125 8.467 l-5.2344 0 l0 3.2031 l4.6387 0 l0 2.5488 l-4.6387 0 l0 3.1934 l5.2344 0 l0 2.5879 l-8.1836 0 l0 -14.111 l8.1836 0 l0 2.5781 z M72.763675 12.5488 c1.5918 0.43945 2.6563 1.4844 2.6563 3.4961 c0 2.3828 -1.4453 3.9551 -4.4238 3.9551 l-5.8105 0 l0 -14.111 l4.5703 0 c3.0469 0 4.6484 1.4648 4.6484 3.8672 c0 1.2402 -0.53711 2.2559 -1.6406 2.793 z M69.785175 8.32 l-1.7773 0 l0 3.3203 l1.9043 0 c1.25 0 1.7969 -0.74219 1.7969 -1.6992 c0 -0.9375 -0.61523 -1.6211 -1.9238 -1.6211 z M70.449175 17.4902 c1.582 0 2.1289 -0.84961 2.1289 -1.7676 c0 -0.9375 -0.53711 -1.8262 -2.1875 -1.8262 l-2.3828 0 l0 3.5938 l2.4414 0 z"></path></g>
			</g>
		</svg>
	